<?xml version="1.0" encoding="utf-8"?>
<!-- Generator: Adobe Illustrator 21.0.0, SVG Export Plug-In . SVG Version: 6.00 Build 0)  -->
<svg version="1.1" id="Layer_1" xmlns="http://www.w3.org/2000/svg" xmlns:xlink="http://www.w3.org/1999/xlink" x="0px" y="0px"
	 viewBox="0 0 150 50" style="enable-background:new 0 0 150 50;" xml:space="preserve">
<style type="text/css">
	.st0{fill:#673695;}
</style>
<g>
	<path class="st0" d="M76.5,17.3c-6.2,0-12,4.9-12,13.3c0,4.4,2.1,7.1,7.9,7.1c6.3,0,12-5.2,12-13.2C84.4,20.3,82.3,17.3,76.5,17.3z
		 M73.2,32.4c-1.9,0-2.5-1.1-2.5-2.8c0-3.2,1.7-7.2,4.9-7.2c1.9,0,2.6,1,2.6,2.8C78.2,28.7,76.4,32.4,73.2,32.4z"/>
	<path class="st0" d="M140.7,17.3c-6.2,0-12,4.9-12,13.3c0,4.4,2.1,7.1,7.9,7.1c6.3,0,12-5.2,12-13.2
		C148.6,20.3,146.5,17.3,140.7,17.3z M137.3,32.4c-1.9,0-2.5-1.1-2.5-2.8c0-3.2,1.7-7.2,4.9-7.2c1.9,0,2.6,1,2.6,2.8
		C142.4,28.7,140.6,32.4,137.3,32.4z"/>
	<path class="st0" d="M97.3,36.9c-0.3,1.5,0.8,3.6,5.2,3.6l0,0l3.2-16.9c0.7-3.6-0.4-6.4-4.2-6.4c-3.5,0-5.9,2.4-7.7,5.4h-0.1
		c0.3-0.9,0.6-1.7,0.8-2.4c0.4-1.6-0.2-2.6-1.7-2.7c-2.2,0-4.5,0.2-6.6,0.4c-0.4,2,0,3.9,2.5,4.2v0.1l-2.3,12
		c-0.1,1.4,1.2,2.8,5.3,2.8h0l1-5.3c0.8-4.3,4-9.4,6-9.4c0.9,0,1.2,0.7,0.8,2.7L97.3,36.9z"/>
	<path class="st0" d="M61.4,16.4l-8,9l3.2-16.9c-3.2-0.1-6.4,0-9.3,0.4c-0.4,2,0,3.8,2.4,4.2c0,0,0.1,0,0.1,0v0.1l-4.1,21.3
		c0,1.4,1.4,2.7,5.3,2.7h0l1.8-9.4l2.3,6.4c0.5,1.4,1.9,3.1,6.3,3.1h1.9l-4.8-10.4l4.5-4.5C65.4,20.1,63,17.4,61.4,16.4z"/>
	<path class="st0" d="M121.2,13c2,0,3.1,2,7.3,1.2c4.2-0.7,6.7-3.1,6.8-6.5c0-0.8-1.1-1.4-2.1,0c-1.5,2.1-4.3,1.6-8.6,0.8
		c-1-0.2-2.1-0.3-3.1-0.3c-5.8,0-8.4,2.9-9.3,8c0,0-0.1,0.4-0.2,1.2c-1,0.1-2.1,0.2-3.2,0.3c-0.4,2.1-0.3,4.5,2.1,4.2
		c0.1,0,0.2,0,0.2,0c-1,5-2.3,12.1-3,15.7c-1,5.9-5.6,6.6-9.1,5.2c-1-0.4-1.6,0.5-0.7,1.6c2,2.6,5.7,3.2,8.5,2.3
		c3.6-1.1,5.9-3.2,7.1-9c0.8-3.6,2.1-10.8,3.1-15.8c1.4,0.1,2.9,0.2,4.6,0.4l-2.3,11.9c-0.3,1.5,0.9,3.1,5.3,3.1l3.3-17.1
		c0.3-1.7-0.2-2.6-2.1-2.7c-1.8-0.2-4.6-0.3-7.9-0.3c0.1-0.4,0.1-0.7,0.1-0.7C118.4,13.8,119.2,13,121.2,13z"/>
	<path class="st0" d="M24.3,22c0.9,0.5,1.9,1.1,2.7,1.7c5.1-3.6,9.4-8.2,12.6-13.5C39,9.4,38.2,8.7,37.5,8
		C34.2,13.6,29.7,18.4,24.3,22z"/>
	<path class="st0" d="M27.1,25c-0.3-0.2-0.6-0.5-1-0.7c-0.9-0.6-1.8-1.2-2.8-1.7c-0.4-0.2-0.7-0.4-1.1-0.6c-0.3-0.2-0.6-0.3-0.9-0.4
		c-1.1,0.6-2.2,1.2-3.3,1.7c0.3,0.1,0.7,0.3,1,0.4c0.4,0.2,0.8,0.4,1.2,0.6c1.1,0.5,2.1,1.1,3.1,1.7c0.3,0.2,0.7,0.4,1,0.7
		c5.4,3.6,9.9,8.4,13.2,14c0.8-0.7,1.5-1.4,2.2-2.2C36.4,33.3,32.1,28.6,27.1,25z"/>
	<path class="st0" d="M21.3,28.4c-1.1,0.5-2.3,1-3.4,1.5C24,33.1,29,38,32.4,44.1c0.9-0.4,1.8-0.9,2.6-1.4
		C31.8,36.8,27,31.8,21.3,28.4z"/>
	<path class="st0" d="M13.6,31.3c-0.6-0.2-1.2-0.5-1.8-0.7c0.6-0.1,1.2-0.3,1.9-0.5c0.4-0.1,0.8-0.2,1.3-0.4c0.5-0.2,1-0.3,1.5-0.5
		c1.2-0.4,2.4-0.9,3.6-1.5c0.4-0.2,0.8-0.4,1.2-0.6c0.3-0.1,0.6-0.3,0.9-0.5c-1-0.6-2.1-1.2-3.2-1.7c-0.3,0.2-0.7,0.3-1,0.5
		c-0.5,0.2-0.9,0.4-1.4,0.6c-1.5,0.6-3,1.1-4.5,1.5c-0.7,0.2-1.5,0.4-2.2,0.5c-0.7,0.1-1.4,0.3-2.1,0.4c-1.9,0.3-3.9,0.4-5.9,0.5
		c0.2,1,0.5,2.1,0.9,3c1.7,0.1,3.3,0.3,4.9,0.6c8,1.7,14.7,6.6,18.9,13.3c1-0.2,2.1-0.4,3.1-0.7C26,38.9,20.4,34,13.6,31.3z"/>
	<path class="st0" d="M9.9,26.9c1.8-0.4,3.5-0.9,5.2-1.5c-0.4-0.2-0.8-0.3-1.2-0.4c-0.6-0.2-1.2-0.4-1.8-0.6
		c0.6-0.2,1.2-0.4,1.8-0.6c0.4-0.1,0.8-0.3,1.2-0.4c0.5-0.2,1-0.4,1.5-0.6c1.2-0.5,2.4-1.1,3.5-1.7c0.4-0.2,0.8-0.4,1.2-0.7
		C27,16.9,31.8,12,35,6.1c-0.8-0.5-1.7-1-2.6-1.4c-3.4,6-8.5,11-14.6,14.1c-0.4,0.2-0.9,0.5-1.3,0.7c-1.4,0.7-2.9,1.3-4.4,1.7
		c-0.7,0.2-1.5,0.4-2.2,0.6c-0.7,0.2-1.4,0.3-2.1,0.4c-2,0.4-4.1,0.6-6.3,0.6c0,0.5-0.1,1-0.1,1.5c0,0.5,0,1,0.1,1.5
		c2.1,0,4.2,0.2,6.3,0.6C8.5,26.6,9.2,26.7,9.9,26.9z"/>
	<path class="st0" d="M9.9,20.7c1.8-0.4,3.5-1,5.1-1.7c-0.4-0.1-0.8-0.3-1.3-0.4c-0.6-0.2-1.2-0.3-1.9-0.5c0.6-0.2,1.2-0.4,1.8-0.7
		c6.7-2.7,12.3-7.7,16-13.9c-1-0.3-2-0.5-3.1-0.7C22.4,9.6,15.6,14.5,7.6,16.2c-1.6,0.3-3.2,0.5-4.8,0.6c-0.4,1-0.7,2-0.9,3
		c2,0,4,0.2,5.9,0.5C8.5,20.5,9.2,20.6,9.9,20.7z"/>
</g>
</svg>
